<?xml version="1.0" encoding="UTF-8" standalone="no"?>
<!-- Created with Inkscape (http://www.inkscape.org/) -->

<svg
   xmlns:osb="http://www.openswatchbook.org/uri/2009/osb"
   xmlns:dc="http://purl.org/dc/elements/1.1/"
   xmlns:cc="http://creativecommons.org/ns#"
   xmlns:rdf="http://www.w3.org/1999/02/22-rdf-syntax-ns#"
   xmlns:svg="http://www.w3.org/2000/svg"
   xmlns="http://www.w3.org/2000/svg"
   xmlns:xlink="http://www.w3.org/1999/xlink"
   xmlns:sodipodi="http://sodipodi.sourceforge.net/DTD/sodipodi-0.dtd"
   xmlns:inkscape="http://www.inkscape.org/namespaces/inkscape"
   width="950"
   height="950"
   id="svg2"
   inkscape:label="Pozadí"
   version="1.1"
   inkscape:version="0.48.4 r9939"
   sodipodi:docname="icon2.svg"
   inkscape:export-filename="/home/honza/android/TimeLapseCalc/app/src/main/res/drawable-hdpi/ic_launcher.png"
   inkscape:export-xdpi="6.8210526"
   inkscape:export-ydpi="6.8210526">
  <defs
     id="defs3">
    <linearGradient
       id="linearGradient5428">
      <stop
         style="stop-color:#000000;stop-opacity:1;"
         offset="0"
         id="stop5430" />
      <stop
         style="stop-color:#000000;stop-opacity:0;"
         offset="1"
         id="stop5432" />
    </linearGradient>
    <linearGradient
       id="linearGradient5378"
       osb:paint="gradient">
      <stop
         style="stop-color:#000000;stop-opacity:1;"
         offset="0"
         id="stop5380" />
      <stop
         style="stop-color:#000000;stop-opacity:0;"
         offset="1"
         id="stop5382" />
    </linearGradient>
    <linearGradient
       id="linearGradient5362"
       inkscape:collect="always">
      <stop
         id="stop5364"
         offset="0"
         style="stop-color:#ffccaa;stop-opacity:1" />
      <stop
         id="stop5366"
         offset="1"
         style="stop-color:#ff6600;stop-opacity:1" />
    </linearGradient>
    <linearGradient
       inkscape:collect="always"
       id="linearGradient5344">
      <stop
         style="stop-color:#ffb380;stop-opacity:1;"
         offset="0"
         id="stop5346" />
      <stop
         style="stop-color:#ff6600;stop-opacity:1"
         offset="1"
         id="stop5348" />
    </linearGradient>
    <linearGradient
       id="linearGradient3108"
       osb:paint="gradient">
      <stop
         style="stop-color:#ffffff;stop-opacity:1"
         offset="0"
         id="stop3110" />
      <stop
         id="stop5439"
         offset="0.5"
         style="stop-color:#7f7f7f;stop-opacity:1;" />
      <stop
         style="stop-color:#000000;stop-opacity:1"
         offset="1"
         id="stop3112" />
    </linearGradient>
    <linearGradient
       inkscape:collect="always"
       xlink:href="#linearGradient5344"
       id="linearGradient5413"
       gradientUnits="userSpaceOnUse"
       x1="309.85339"
       y1="618.97284"
       x2="295.67224"
       y2="829.87628" />
    <linearGradient
       inkscape:collect="always"
       xlink:href="#linearGradient3108"
       id="linearGradient5424"
       x1="492.95453"
       y1="86.656387"
       x2="177.78682"
       y2="1383.6921"
       gradientUnits="userSpaceOnUse" />
    <linearGradient
       inkscape:collect="always"
       xlink:href="#linearGradient5362"
       id="linearGradient5437"
       gradientUnits="userSpaceOnUse"
       gradientTransform="translate(0,-28.362183)"
       x1="381.68808"
       y1="149.87631"
       x2="512.05811"
       y2="584.07794" />
    <linearGradient
       inkscape:collect="always"
       xlink:href="#linearGradient3108"
       id="linearGradient5888"
       gradientUnits="userSpaceOnUse"
       x1="492.95453"
       y1="86.656387"
       x2="177.78682"
       y2="1383.6921" />
    <linearGradient
       inkscape:collect="always"
       xlink:href="#linearGradient5344"
       id="linearGradient5890"
       gradientUnits="userSpaceOnUse"
       x1="309.85339"
       y1="618.97284"
       x2="295.67224"
       y2="829.87628" />
    <linearGradient
       inkscape:collect="always"
       xlink:href="#linearGradient5362"
       id="linearGradient5892"
       gradientUnits="userSpaceOnUse"
       gradientTransform="translate(0,-28.362183)"
       x1="381.68808"
       y1="149.87631"
       x2="512.05811"
       y2="584.07794" />
    <linearGradient
       inkscape:collect="always"
       xlink:href="#linearGradient5362"
       id="linearGradient3021"
       gradientUnits="userSpaceOnUse"
       gradientTransform="translate(55,-15.00001)"
       x1="381.68808"
       y1="149.87631"
       x2="512.05811"
       y2="584.07794" />
    <linearGradient
       inkscape:collect="always"
       xlink:href="#linearGradient5344"
       id="linearGradient3024"
       gradientUnits="userSpaceOnUse"
       x1="309.85339"
       y1="618.97284"
       x2="295.67224"
       y2="829.87628"
       gradientTransform="translate(55,-15.00001)" />
    <linearGradient
       inkscape:collect="always"
       xlink:href="#linearGradient3108"
       id="linearGradient3027"
       gradientUnits="userSpaceOnUse"
       x1="492.95453"
       y1="86.656387"
       x2="177.78682"
       y2="1383.6921"
       gradientTransform="translate(55,-15.00001)" />
  </defs>
  <sodipodi:namedview
     id="base"
     pagecolor="#ffffff"
     bordercolor="#666666"
     borderopacity="1.0"
     inkscape:pageopacity="0.0"
     inkscape:pageshadow="2"
     inkscape:zoom="0.35"
     inkscape:cx="225.69513"
     inkscape:cy="229.29503"
     inkscape:document-units="px"
     inkscape:current-layer="layer1"
     showgrid="false"
     fit-margin-top="0"
     fit-margin-left="0"
     fit-margin-right="0"
     fit-margin-bottom="0"
     inkscape:window-width="1218"
     inkscape:window-height="776"
     inkscape:window-x="62"
     inkscape:window-y="0"
     inkscape:window-maximized="1" />
  <metadata
     id="metadata6">
    <rdf:RDF>
      <cc:Work
         rdf:about="">
        <dc:format>image/svg+xml</dc:format>
        <dc:type
           rdf:resource="http://purl.org/dc/dcmitype/StillImage" />
        <dc:title></dc:title>
      </cc:Work>
    </rdf:RDF>
  </metadata>
  <g
     inkscape:label="Vrstva 1"
     inkscape:groupmode="layer"
     id="layer1"
     transform="translate(0,-102.36218)">
    <path
       inkscape:connector-curvature="0"
       style="fill:url(#linearGradient3027);fill-opacity:1;stroke:#000000;stroke-width:3;stroke-linecap:round;stroke-linejoin:round;stroke-miterlimit:4;stroke-opacity:0.67672412;stroke-dasharray:none"
       d="m 55,117.36217 0,920.00003 840,0 0,-920.00003 -840,0 z m 36,38.5 48,0 c 3.324,0 6,2.676 6,6 l 0,48 c 0,3.324 -2.676,6 -6,6 l -48,0 c -3.324,0 -6,-2.676 -6,-6 l 0,-48 c 0,-3.324 2.676,-6 6,-6 z m 720,0 48,0 c 3.324,0 6,2.676 6,6 l 0,48 c 0,3.324 -2.676,6 -6,6 l -48,0 c -3.324,0 -6,-2.676 -6,-6 l 0,-48 c 0,-3.324 2.676,-6 6,-6 z m -720,87 48,0 c 3.324,0 6,2.676 6,6 l 0,48 c 0,3.324 -2.676,6 -6,6 l -48,0 c -3.324,0 -6,-2.676 -6,-6 l 0,-48 c 0,-3.324 2.676,-6 6,-6 z m 720,0 48,0 c 3.324,0 6,2.676 6,6 l 0,48 c 0,3.324 -2.676,6 -6,6 l -48,0 c -3.324,0 -6,-2.676 -6,-6 l 0,-48 c 0,-3.324 2.676,-6 6,-6 z m -720,87 48,0 c 3.324,0 6,2.676 6,6 l 0,48 c 0,3.324 -2.676,6 -6,6 l -48,0 c -3.324,0 -6,-2.676 -6,-6 l 0,-48 c 0,-3.324 2.676,-6 6,-6 z m 720,0 48,0 c 3.324,0 6,2.676 6,6 l 0,48 c 0,3.324 -2.676,6 -6,6 l -48,0 c -3.324,0 -6,-2.676 -6,-6 l 0,-48 c 0,-3.324 2.676,-6 6,-6 z m -720,87 48,0 c 3.324,0 6,2.676 6,6 l 0,48 c 0,3.324 -2.676,6 -6,6 l -48,0 c -3.324,0 -6,-2.676 -6,-6 l 0,-48 c 0,-3.324 2.676,-6 6,-6 z m 720,0 48,0 c 3.324,0 6,2.676 6,6 l 0,48 c 0,3.324 -2.676,6 -6,6 l -48,0 c -3.324,0 -6,-2.676 -6,-6 l 0,-48 c 0,-3.324 2.676,-6 6,-6 z m -720,87 48,0 c 3.324,0 6,2.676 6,6 l 0,48 c 0,3.324 -2.676,6 -6,6 l -48,0 c -3.324,0 -6,-2.676 -6,-6 l 0,-48 c 0,-3.324 2.676,-6 6,-6 z m 720,0 48,0 c 3.324,0 6,2.676 6,6 l 0,48 c 0,3.324 -2.676,6 -6,6 l -48,0 c -3.324,0 -6,-2.676 -6,-6 l 0,-48 c 0,-3.324 2.676,-6 6,-6 z m -720,87 48,0 c 3.324,0 6,2.676 6,6 l 0,48 c 0,3.324 -2.676,6 -6,6 l -48,0 c -3.324,0 -6,-2.676 -6,-6 l 0,-48 c 0,-3.324 2.676,-6 6,-6 z m 720,0 48,0 c 3.324,0 6,2.676 6,6 l 0,48 c 0,3.324 -2.676,6 -6,6 l -48,0 c -3.324,0 -6,-2.676 -6,-6 l 0,-48 c 0,-3.324 2.676,-6 6,-6 z m -720,87 48,0 c 3.324,0 6,2.676 6,6 l 0,48 c 0,3.324 -2.676,6 -6,6 l -48,0 c -3.324,0 -6,-2.676 -6,-6 l 0,-48 c 0,-3.324 2.676,-6 6,-6 z m 720,0 48,0 c 3.324,0 6,2.676 6,6 l 0,48 c 0,3.324 -2.676,6 -6,6 l -48,0 c -3.324,0 -6,-2.676 -6,-6 l 0,-48 c 0,-3.324 2.676,-6 6,-6 z m -720,87 48,0 c 3.324,0 6,2.676 6,6 l 0,48 c 0,3.324 -2.676,6 -6,6 l -48,0 c -3.324,0 -6,-2.676 -6,-6 l 0,-48 c 0,-3.324 2.676,-6 6,-6 z m 720,0 48,0 c 3.324,0 6,2.676 6,6 l 0,48 c 0,3.324 -2.676,6 -6,6 l -48,0 c -3.324,0 -6,-2.676 -6,-6 l 0,-48 c 0,-3.324 2.676,-6 6,-6 z m -720,87 48,0 c 3.324,0 6,2.676 6,6 l 0,48 c 0,3.324 -2.676,6 -6,6 l -48,0 c -3.324,0 -6,-2.676 -6,-6 l 0,-48 c 0,-3.324 2.676,-6 6,-6 z m 720,0 48,0 c 3.324,0 6,2.676 6,6 l 0,48 c 0,3.324 -2.676,6 -6,6 l -48,0 c -3.324,0 -6,-2.676 -6,-6 l 0,-48 c 0,-3.324 2.676,-6 6,-6 z m -720,87 48,0 c 3.324,0 6,2.676 6,6 l 0,48.00002 c 0,3.324 -2.676,6 -6,6 l -48,0 c -3.324,0 -6,-2.676 -6,-6 l 0,-48.00002 c 0,-3.324 2.676,-6 6,-6 z m 720,0 48,0 c 3.324,0 6,2.676 6,6 l 0,48.00002 c 0,3.324 -2.676,6 -6,6 l -48,0 c -3.324,0 -6,-2.676 -6,-6 l 0,-48.00002 c 0,-3.324 2.676,-6 6,-6 z"
       id="rect3023" />
    <rect
       style="fill:url(#linearGradient3024);fill-opacity:1;stroke:#000000;stroke-width:3;stroke-linecap:round;stroke-linejoin:round;stroke-miterlimit:4;stroke-opacity:0.58823529;stroke-dasharray:none"
       id="rect3003"
       width="600"
       height="400"
       x="175"
       y="597.36218" />
    <path
       inkscape:connector-curvature="0"
       style="fill:url(#linearGradient3021);fill-opacity:1;stroke:#000000;stroke-width:3;stroke-linecap:round;stroke-linejoin:round;stroke-miterlimit:4;stroke-opacity:0.58823529;stroke-dasharray:none"
       d="m 175,157.36217 0,400 600,0 0,-400 -600,0 z"
       id="rect3003-3" />
    <path
       inkscape:connector-curvature="0"
       id="path2987"
       d="m 306.9202,509.92411 c -15.82566,-0.44092 -22.62817,-2.22438 -27.16174,-7.12117 -4.05838,-4.38354 -4.68989,-7.21949 -5.83475,-26.20284 -2.25859,-37.45072 -2.43835,-79.33089 -0.51334,-119.59728 0.77455,-16.20074 2.55745,-39.88227 3.41082,-45.30346 2.86126,-18.1769 18.85979,-32.91637 41.70643,-38.42409 17.94671,-4.32647 30.08341,-5.74558 37.26565,-4.3572 3.50697,0.6779 8.31011,0.52815 23.08942,-0.71986 35.48145,-2.99623 55.73505,-7.28137 66.09703,-13.98451 4.5815,-2.96373 5.82503,-4.65422 12.73952,-17.3185 2.04346,-3.74272 4.46813,-7.95327 5.38815,-9.35684 2.07924,-3.17196 5.9892,-7.10632 9.34356,-9.40197 2.89561,-1.98165 8.84189,-5.02655 12.50189,-6.40186 1.35551,-0.50936 2.58042,-1.10399 2.72199,-1.32148 0.14156,-0.21742 0.56363,-1.30297 0.9379,-2.41226 0.44487,-1.3186 1.01305,-2.26146 1.64089,-2.72308 0.95133,-0.69938 1.23232,-0.70707 29.77171,-0.81366 15.84623,-0.0594 29.78192,-0.006 30.96822,0.11541 2.62422,0.27126 3.32936,0.87726 3.6247,3.11498 0.46761,3.54303 0.36913,3.38917 2.43581,3.80423 4.42286,0.88827 13.34397,6.72785 19.02752,12.45513 2.69854,2.71926 3.30233,3.55857 4.79495,6.6652 0.93921,1.95482 2.4315,5.32683 3.31622,7.49327 0.88471,2.16653 2.09544,4.80914 2.69051,5.87251 1.42055,2.53849 6.63086,8.73439 7.33564,8.72329 0.30319,-0.006 1.37592,-0.53415 2.38385,-1.1764 3.36268,-2.14257 5.75185,-2.26024 16.71094,-0.82327 19.03482,2.49583 31.80887,6.94316 40.73983,14.18362 2.44009,1.9782 2.93614,3.09872 2.71988,6.14347 -0.10184,1.43359 -0.67978,4.776 -1.28434,7.42766 -0.60455,2.65158 -1.01779,5.0332 -0.91829,5.2925 0.0995,0.25932 2.18021,1.52556 4.6238,2.81405 5.30957,2.79957 7.20221,4.32971 8.34608,6.74777 2.32084,4.90577 6.22703,25.61635 7.84031,41.56923 1.87273,18.518 2.29224,31.38721 2.48099,76.10367 0.17819,42.22092 -0.0955,57.50098 -1.1188,62.45498 -1.68835,8.17374 -5.73556,15.57654 -11.86957,21.71054 -6.07047,6.07043 -12.71202,9.75112 -21.27779,11.79198 -2.87374,0.68468 -3.78303,0.69013 -143.2445,0.85627 l -140.35239,0.16719 -3.37055,1.15669 -3.37061,1.15662 -18.74553,-0.0572 c -10.31006,-0.031 -22.72646,-0.16796 -27.59201,-0.30352 z m 218.94971,-5.41944 c 6.14806,-0.35742 11.56307,-1.17795 17.89428,-2.71156 42.753,-10.35592 75.20763,-45.21319 82.45736,-88.56184 0.98476,-5.88811 1.37675,-11.04754 1.37675,-18.12066 0,-9.80334 -0.90502,-17.48105 -3.08826,-26.19911 -6.26369,-25.01211 -20.74906,-46.557 -41.88353,-62.29563 -12.67696,-9.4404 -29.58693,-16.63714 -45.5284,-19.37638 -11.88204,-2.04171 -26.43061,-2.04014 -38.27793,0.006 -20.95567,3.61592 -41.34574,14.08799 -56.92156,29.23418 -9.34984,9.09195 -16.08652,18.24527 -21.86836,29.71325 -15.46714,30.67814 -15.46477,67.17602 0.006,98.099 10.64888,21.28452 28.13248,38.64088 49.52222,49.16189 9.34263,4.59539 17.05962,7.26428 26.57466,9.19083 10.14308,2.0538 17.98752,2.54494 29.73642,1.86194 z m -18.03315,-17.71924 c -6.33091,-0.77601 -13.82251,-2.53496 -20.24454,-4.75318 -28.56221,-9.86563 -50.84226,-34.0099 -58.52851,-63.4257 -2.39894,-9.18093 -2.70638,-11.81281 -2.70494,-23.15568 7.1e-4,-8.20855 0.12119,-10.94038 0.61341,-13.95017 3.32922,-20.35725 12.52533,-38.21791 26.80839,-52.06734 7.10827,-6.89244 14.08437,-11.91999 22.32192,-16.08696 8.55109,-4.3256 15.97507,-6.84899 25.95004,-8.82026 4.38098,-0.8658 5.09676,-0.90862 15.48129,-0.92501 12.11762,-0.0191 14.24046,0.20373 23.13688,2.43015 6.34059,1.58679 12.08275,3.73629 18.51515,6.93093 18.03492,8.95696 32.53584,23.55452 41.38302,41.65886 3.93258,8.04743 6.15042,14.52346 7.80713,22.79665 1.20624,6.02366 1.53521,9.86895 1.53521,17.94484 0,8.20199 -0.53917,13.53462 -2.02148,19.99285 -4.02124,17.52017 -12.3963,32.57596 -25.1729,45.25295 -14.01273,13.90362 -30.95284,22.40482 -51.23282,25.71065 -3.99937,0.65198 -19.62033,0.96004 -23.64725,0.46642 z m 20.92525,-40.0686 c 18.23457,-3.90582 33.29954,-17.33751 39.12688,-34.88495 3.5445,-10.6733 3.57863,-22.00021 0.0991,-32.88303 -6.02205,-18.83494 -22.64469,-32.84947 -42.38674,-35.73613 -4.20177,-0.6144 -15.05996,-0.248 -18.82932,0.63538 -9.93071,2.32729 -18.50171,7.06309 -25.65535,14.1755 -10.38916,10.32916 -15.4706,22.65369 -15.4706,37.52221 0,14.94975 6.3107,28.9206 17.61468,38.99612 7.35612,6.55668 16.75453,11.00048 26.78772,12.66576 3.94592,0.65495 14.67872,0.37338 18.71364,-0.49086 z m -159.83158,43.97173 0.76555,-0.85676 0,-76.46115 c 0,-83.88213 0.1671,-77.39903 -2.01794,-78.30411 -0.88338,-0.3659 -1.17756,-0.33476 -2.13799,0.2261 -0.96272,0.56228 -1.14934,0.8983 -1.37684,2.47924 -0.14477,1.0058 -0.22228,35.69233 -0.17227,77.08123 0.0792,65.5063 0.15553,75.3302 0.58952,75.85304 1.17334,1.41374 3.07795,1.40605 4.34997,-0.0177 z m 264.66056,-73.13789 c 4.53561,-4.87051 8.06695,-11.02994 9.36115,-16.32803 0.67342,-2.7567 0.50275,-9.41235 -0.32003,-12.48077 -1.30265,-4.85808 -5.27954,-11.71386 -9.26112,-15.9653 -1.46323,-1.56243 -1.64466,-1.65342 -3.29731,-1.65342 -0.96192,0 -1.81686,0.11479 -1.89995,0.25514 -0.0831,0.14036 0.12868,2.51745 0.47057,5.28242 1.50045,12.13549 1.66251,23.06075 0.4857,32.74033 -0.78169,6.42982 -0.95385,8.58334 -0.73235,9.16059 0.151,0.39353 0.67839,0.5365 1.97906,0.5365 1.66629,0 1.8601,-0.0933 3.21428,-1.54746 z M 337.72688,293.4052 c 3.03161,-0.54087 6.27359,-2.08994 8.31805,-3.97447 3.67808,-3.39032 3.5088,-7.52903 -0.41844,-10.23105 -2.4306,-1.67226 -5.02373,-2.3253 -9.23366,-2.3253 -5.54414,0 -9.56468,1.3058 -12.80643,4.15927 -4.49951,3.9607 -3.63123,8.56462 2.16442,11.47644 2.77109,1.39226 7.29465,1.73034 11.97606,0.89511 z"
       style="fill:#191919" />
    <g
       transform="matrix(0.94208494,0,0,0.94208494,192.37452,-5.63541)"
       id="layer1-8"
       inkscape:label="Vrstva 1">
      <path
         id="rect4192-0"
         transform="translate(0,652.36218)"
         d="M 124.4375,215 C 119.20528,215 115,219.20528 115,224.4375 l 0,151.125 c 0,5.2322 4.20528,9.4375 9.4375,9.4375 l 151.125,0 c 5.23222,0 9.4375,-4.2053 9.4375,-9.4375 l 0,-151.125 C 285,219.20528 280.79472,215 275.5625,215 l -151.125,0 z m 47.28125,44.625 c 1.2781,0 2.55191,0.48941 3.53125,1.46875 l 24.75,24.75 24.75,-24.75 c 0.97934,-0.97934 2.25315,-1.46875 3.53125,-1.46875 1.2781,0 2.55191,0.48941 3.53125,1.46875 l 7.09375,7.09375 c 1.95869,1.95869 1.95869,5.10381 0,7.0625 l -24.75,24.75 24.75,24.75 c 1.95869,1.95869 1.95869,5.10381 0,7.0625 l -7.09375,7.09375 c -1.95869,1.95869 -5.10381,1.95869 -7.0625,0 l -24.75,-24.75 -24.75,24.75 c -1.95869,1.95869 -5.10381,1.95869 -7.0625,0 l -7.09375,-7.09375 c -1.95869,-1.95869 -1.95869,-5.10381 0,-7.0625 l 24.75,-24.75 -24.75,-24.75 c -1.95869,-1.95869 -1.95869,-5.10381 0,-7.0625 l 7.09375,-7.09375 c 0.97934,-0.97934 2.25315,-1.46875 3.53125,-1.46875 z"
         style="fill:#000000;fill-opacity:1"
         inkscape:connector-curvature="0" />
      <path
         id="rect4192-2"
         transform="translate(0,652.36218)"
         d="M 324.4375,15 C 319.20528,15 315,19.20528 315,24.4375 l 0,151.125 c 0,5.23222 4.20528,9.4375 9.4375,9.4375 l 151.125,0 c 5.23222,0 9.4375,-4.20528 9.4375,-9.4375 l 0,-151.125 C 485,19.20528 480.79472,15 475.5625,15 l -151.125,0 z M 355,90 l 90,0 c 2.77,0 5,2.23 5,5 l 0,10 c 0,2.77 -2.23,5 -5,5 l -90,0 c -2.77,0 -5,-2.23 -5,-5 l 0,-10 c 0,-2.77 2.23,-5 5,-5 z"
         style="fill:#000000;fill-opacity:1"
         inkscape:connector-curvature="0" />
      <path
         inkscape:connector-curvature="0"
         id="rect4192-0-9"
         d="m 324.4375,867.36218 c -5.23222,0 -9.4375,4.20528 -9.4375,9.4375 l 0,151.12502 c 0,5.2322 4.20528,9.4375 9.4375,9.4375 l 151.125,0 c 5.23222,0 9.4375,-4.2053 9.4375,-9.4375 l 0,-151.12502 c 0,-5.23222 -4.20528,-9.4375 -9.4375,-9.4375 l -151.125,0 z m 70.5625,45 10,0 c 2.77,0 5,2.23 5,5 l 0,10 c 0,2.77 -2.23,5 -5,5 l -10,0 c -2.77,0 -5,-2.23 -5,-5 l 0,-10 c 0,-2.77 2.23,-5 5,-5 z m -40,30 90,0 c 2.77,0 5,2.23 5,5 l 0,10 c 0,2.77 -2.23,5 -5,5 l -90,0 c -2.77,0 -5,-2.23 -5,-5 l 0,-10 c 0,-2.77 2.23,-5 5,-5 z m 40,30 10,0 c 2.77,0 5,2.23 5,5 l 0,10 c 0,2.77 -2.23,5 -5,5 l -10,0 c -2.77,0 -5,-2.23 -5,-5 l 0,-10 c 0,-2.77 2.23,-5 5,-5 z"
         style="fill:#000000;fill-opacity:1" />
      <path
         id="rect2990"
         transform="translate(0,652.36218)"
         d="M 124.4375,15 C 119.20528,15 115,19.20528 115,24.4375 l 0,151.125 c 0,5.23222 4.20528,9.4375 9.4375,9.4375 l 151.125,0 c 5.23222,0 9.4375,-4.20528 9.4375,-9.4375 l 0,-151.125 C 285,19.20528 280.79472,15 275.5625,15 l -151.125,0 z M 195,50 l 10,0 c 2.77,0 5,2.23 5,5 l 0,35 35,0 c 2.77,0 5,2.23 5,5 l 0,10 c 0,2.77 -2.23,5 -5,5 l -35,0 0,35 c 0,2.77 -2.23,5 -5,5 l -10,0 c -2.77,0 -5,-2.23 -5,-5 l 0,-35 -35,0 c -2.77,0 -5,-2.23 -5,-5 l 0,-10 c 0,-2.77 2.23,-5 5,-5 l 35,0 0,-35 c 0,-2.77 2.23,-5 5,-5 z"
         style="fill:#000000;fill-opacity:1"
         inkscape:connector-curvature="0" />
    </g>
  </g>
</svg>
